# xmcd
#
# Track frame offsets:
#	150
#	11126
#	21140
#	35258
#	46397
#	58386
#	71623
#	84915
#	94561
#	105443
#	116779
#	129148
#	144904
#	160764
#	172085
#	185915
#	201078
#	212189
#	224891
#
# Disc length: 3163 seconds
#
# Revision: 1
# Processed by: cddbd v1.5.2PL0 Copyright (c) Steve Scherf et al.
# Submitted via: audiograbber 1.83.01
#
DISCID=150c5913
DTITLE=Wanda Jackson - The Famous Wanda Jackson CD14
DYEAR=2012
DGENRE=Country
TTITLE0=Tears Will Be The Chaser For Your Wine
TTITLE1=Tell It To Your Lonely Walls
TTITLE2=Tennessee Women's Prison
TTITLE3=The Box It Came In
TTITLE4=The Dirt Behind My Years
TTITLE5=The Great Speckled Bird
TTITLE6=The Greatest Actor
TTITLE7=The Half That's Mine
TTITLE8=The Heart You Could Have Had
TTITLE9=The Hunter
TTITLE10=The Hurtin's All Over
TTITLE11=The Keeper Of The Key
TTITLE12=The King Is Coming
TTITLE13=The Last Days Of Love
TTITLE14=The Last Letter
TTITLE15=The Long Legged Guitar Pickin' Man
TTITLE16=The Long Legged Guitar Pickin Man
TTITLE17=The More You See Me Less
TTITLE18=The Pain Of It All
EXTD=
EXTT0=
EXTT1=
EXTT2=
EXTT3=
EXTT4=
EXTT5=
EXTT6=
EXTT7=
EXTT8=
EXTT9=
EXTT10=
EXTT11=
EXTT12=
EXTT13=
EXTT14=
EXTT15=
EXTT16=
EXTT17=
EXTT18=
PLAYORDER=
